<?xml version="1.0" standalone="no"?>
<!DOCTYPE svg PUBLIC "-//W3C//DTD SVG 20010904//EN"
 "http://www.w3.org/TR/2001/REC-SVG-20010904/DTD/svg10.dtd">
<svg version="1.0" xmlns="http://www.w3.org/2000/svg"
 width="700.000000pt" height="700.000000pt" viewBox="0 0 700.000000 700.000000"
 preserveAspectRatio="xMidYMid meet">
<metadata>
Created by potrace 1.11, written by Peter Selinger 2001-2013
</metadata>
<g transform="translate(0.000000,700.000000) scale(0.100000,-0.100000)"
fill="#000000" stroke="none">
<path d="M1370 6995 c-8 -2 -49 -8 -90 -15 -82 -13 -248 -54 -295 -74 -241
-102 -388 -198 -542 -352 -165 -167 -283 -355 -358 -572 -19 -55 -36 -112 -39
-126 -3 -15 -7 -34 -10 -44 -8 -25 -16 -69 -24 -132 -9 -68 -9 -4274 -1 -4350
80 -676 632 -1230 1314 -1319 28 -3 1013 -6 2190 -6 1781 0 2152 2 2210 14 39
7 77 15 85 16 35 6 110 29 187 55 527 185 925 682 991 1240 4 30 7 1020 7
2200 l0 2145 -23 104 c-78 353 -252 644 -522 875 -164 140 -423 265 -641 310
-41 8 -87 18 -104 23 -27 7 -4300 15 -4335 8z"/>
</g>
</svg>
